<?xml version="1.0" encoding="UTF-8"?>
<svg viewBox="0 0 354.33069 354.33069" xmlns="http://www.w3.org/2000/svg" xmlns:xlink="http://www.w3.org/1999/xlink">
 <defs>
  <linearGradient id="a">
   <stop stop-color="#f00" offset="0"/>
   <stop stop-color="#f00" offset=".4"/>
   <stop stop-color="#800000" offset="1"/>
  </linearGradient>
  <linearGradient id="h" x1="364.31" x2="334.09" y1="657.95" y2="702.97" gradientUnits="userSpaceOnUse">
   <stop stop-color="#fff" offset="0"/>
   <stop stop-color="#fff" stop-opacity="0" offset="1"/>
  </linearGradient>
  <radialGradient id="f" cx="187.89" cy="48.426" r="40.503" gradientTransform="matrix(.28613 .18503 -.207 .31741 288.5 613.2)" gradientUnits="userSpaceOnUse">
   <stop stop-color="#f0f" offset="0"/>
   <stop stop-color="#800080" offset="1"/>
  </radialGradient>
  <radialGradient id="e" cx="249.77" cy="279.72" r="32.468" gradientTransform="matrix(.05054 -.96023 .47648 .02487 201.13 968.16)" gradientUnits="userSpaceOnUse">
   <stop stop-color="#784421" stop-opacity="0" offset="0"/>
   <stop stop-color="#784421" stop-opacity="0" offset=".2"/>
   <stop stop-color="#784421" offset="1"/>
  </radialGradient>
  <radialGradient id="d" cx="211.86" cy="167.27" r="47.891" gradientTransform="matrix(.43957 -.09304 .23738 1.1121 207.72 536.39)" gradientUnits="userSpaceOnUse">
   <stop stop-color="#f60" stop-opacity="0" offset="0"/>
   <stop stop-color="#d45500" stop-opacity="0" offset=".4"/>
   <stop stop-color="#d45500" offset="1"/>
  </radialGradient>
  <radialGradient id="c" cx="182.5" cy="78.21" r="38.358" gradientTransform="matrix(2.628 5.1578 -1.7445 .88885 -345.51 -772.76)" gradientUnits="userSpaceOnUse">
   <stop stop-color="#999" offset="0"/>
   <stop stop-color="#e6e6e6" offset=".125"/>
   <stop stop-color="#999" offset=".25"/>
   <stop stop-color="#808080" offset=".5"/>
   <stop stop-color="#b3b3b3" offset="1"/>
  </radialGradient>
  <radialGradient id="g" cx="260.11" cy="331.47" r="22.355" gradientTransform="matrix(1.2546 1.5493 -.90211 .73051 47.966 -156.84)" gradientUnits="userSpaceOnUse" xlink:href="#a"/>
  <radialGradient id="b" cx="182.12" cy="306.74" r="13.77" gradientTransform="matrix(1.5135 0 0 2.7071 -278.1 -368.14)" gradientUnits="userSpaceOnUse" xlink:href="#a"/>
 </defs>
 <g transform="matrix(2.8114 0 0 2.8114 -756.38 -1835.4)">
  <g transform="matrix(.3468 0 0 .34534 331.18 590.29)">
   <g transform="matrix(.99821 -.06658 .02684 1 73.02 -121.15)">
    <path transform="matrix(.97841 -.07697 -.00087476 1.0042 -.67119 1.7616)" d="m-23.812 588.5c-2.9794 0.3122-5.94 1.2501-8.2812 2.8125s-4.1249 3.8946-4.25 6.7812c-0.01433 0.33059-0.20663 1.3118-0.5 2.4688s-0.68381 2.554-0.96875 4.0312c-0.56989 2.9546-0.92759 6.3325 0.75 9.0625 5.7404 9.3414 7.3276 11.065 11.188 16.031 2.1279 2.7378 4.9686 6.5278 8.375 9.6875s7.4694 5.7812 12.156 5.7812c8.9158 0 16.406-6.2275 16.406-14.188 0-3.6585-1.1471-8.6598-4.125-11.469-1.6364-1.5436-4.283-3.0492-7.0625-5.5312s-5.6243-5.8199-7.4688-10.625c-1.5253-3.9734-2.3993-7.0662-3.75-9.5625s-3.4436-4.355-6.625-5.0312c-1.8657-0.39656-3.8643-0.45742-5.8438-0.25z"/>
    <path d="m8.75 634.1c0 6.7556-6.4359 12.708-14.375 13.296s-14.515-7.9673-18.661-12.995c-3.75-4.5474-5.2091-5.9837-10.738-14.572-2.5088-3.897 0.80496-11.805 0.91178-14.278 0.2571-5.9517 9.5162-9.7008 15.983-8.8046 5.4509 0.75538 5.9391 4.9432 8.9328 12.521 3.7708 9.5444 11.796 12.83 14.427 15.117 2.2988 1.9983 3.5196 6.5658 3.5196 9.716z" fill="#fff"/>
   </g>
   <path d="m65.948 469.92c-2.9147 0.30336-5.8111 1.2147-8.1015 2.7329s-4.0354 3.7843-4.1577 6.5893c-0.014 0.32124-0.20214 1.2747-0.48914 2.3989s-0.66896 2.4817-0.94772 3.9171c-0.55751 2.8709-0.90745 6.1533 0.73372 8.806 5.6157 9.077 7.1686 10.752 10.945 15.577 2.0817 2.6603 4.8608 6.343 8.1932 9.4133s7.3072 5.6176 11.892 5.6176c8.7223 0 16.05-6.0512 16.05-13.786 0-3.555-1.1222-8.4146-4.0354-11.144-1.6009-1.4999-4.19-2.9628-6.9092-5.3747s-5.5022-5.6552-7.3066-10.324c-1.4922-3.861-2.3472-6.8661-3.6686-9.2918s-3.3688-4.2317-6.4812-4.8888c-1.8252-0.38533-3.7804-0.44447-5.7169-0.24292z"/>
   <path d="m99.182 511.91c0 6.7556-6.4359 12.232-14.375 12.232s-14.515-9.041-18.661-14.375c-3.75-4.8248-5.2091-6.3691-10.738-15.367-2.5088-4.0826 0.80496-11.745 0.91178-14.21 0.2571-5.9327 9.5162-8.9968 15.983-7.6223 5.4509 1.1586 5.9391 5.3825 8.9328 13.181 3.7708 9.8233 11.796 13.703 14.427 16.184 2.2988 2.1683 3.5196 6.8261 3.5196 9.9764z" fill="url(#g)"/>
   <path d="m78.646 472.17c0 3.6281-4.7969 6.8553-10.714 7.208s-10.714-2.3025-10.714-5.9306 4.797-6.8552 10.714-7.208 10.714 2.3025 10.714 5.9306z"/>
   <path d="m76.146 472.18c0 3.0432-3.8376 5.75-8.5714 6.0459s-8.5714-1.9313-8.5714-4.9745 3.8376-5.7501 8.5714-6.0459 8.5714 1.9313 8.5714 4.9745z" fill="#fff"/>
   <path d="m83.582 498.41c-1.576-1.7504-6.899-1.7897-8.3658 1.601-0.5755 1.3303 0.21785-0.54585 3.855-1.3853s5.4406 0.81713 4.5107-0.21563z"/>
   <path d="m78.211 493.72c-1.6934-0.65003-5.3596 1.184-5.1807 4.0234 0.0702 1.114-0.0413-0.45072 2.1609-2.2984s4.0189-1.3415 3.0198-1.725z"/>
   <path d="m69.658 407.87c-1.7045 0-3.6035 0.61545-5.2379 1.375-0.81722 0.37977-1.5158 0.67123-2.1975 1.5312-0.34085 0.43001-0.77149 1.3236-0.45154 2.2812s1.0211 1.3264 1.5352 1.5312c2.7412 1.0923 4.7671 3.6605 6.1711 7.5s2.0806 8.8388 2.1072 14.156c0.0533 10.635-2.5308 22.611-6.0808 29.438-1.7753 3.4139-1.4409 7.0886 1.0536 8.6562 1.2472 0.78383 2.9262 0.75011 4.3047 0s2.5635-2.1057 3.5823-4.0625c5.3684-10.312 7.5717-25.402 7.014-38.156-0.27883-6.3773-1.2366-12.138-3.0404-16.531-0.9019-2.1964-2.0168-4.0809-3.4618-5.4688s-3.2907-2.25-5.2981-2.25z"/>
   <path d="m64.042 412.8c-2.2005-0.84468 3.5776-3.0305 5.9346-3.0305 12.643 0 13.883 39.986 3.283 59.599-3.7268 6.8958-9.0119 2.9224-5.9346-2.7779 7.8672-14.573 10.691-48.427-3.283-53.791z" fill="#cb7d15"/>
  </g>
  <g transform="matrix(.3468 0 0 .34534 331.18 590.29)">
   <g transform="translate(373.87 -118.57)">
    <path transform="matrix(.8792 -.47717 .45195 .88699 -936.29 305.58)" d="m569.28 337.41c-2.3903 0-5.3228 1.1608-8.4375 2.6562s-6.2041 3.3492-8.2812 5.0312c-1.3198 1.0688-2.5878 2.5495-3.4375 4.25s-1.3362 3.7458-0.53125 5.6875c0.59608 1.4379 1.7809 2.4637 3.0938 3.3125 0.61687 0.39886 1.2621 0.74733 1.9375 1-1.658 0.42108-3.723 1.1286-5.625 2.75-1.2604 1.0745-2.3501 2.5739-2.6875 4.4688s0.0845 4.0628 1.4375 6.4062c1.6107 2.7898 3.8671 4.469 6.5 4.625s5.3449-0.95964 8.5-2.7812c2.533-1.4624 4.17-3.1342 5.2812-4.5s1.9609-2.4828 1.8125-2.375c2.1664-1.574 4.7587-4.1205 7-6.75s4.1331-5.1664 4.75-7.4688c0.45918-1.7137 0.44798-3.4766-0.625-4.9062-0.51928-0.69192-1.5278-1.1855-2.5312-1.125 9e-3 -6e-3 0.0226-0.0256 0.0312-0.0312 2.179-1.415 3.0677-3.9267 2-5.8438-0.53386-0.95851-1.5569-1.6618-2.7188-1.8438-0.71218-0.11151-1.4691 3e-3 -2.25 0.21875-9e-3 -0.0528 0.0443-0.10516 0.0312-0.15625-0.13966-0.54764-0.47367-0.93008-0.78125-1.2188-1.2303-1.1547-2.7813-1.4062-4.4688-1.4062z"/>
    <path d="m-305.18 342.58c-0.90373 0.48506-1.742 1.2404-2.4415 2.2684-0.4294 0.63112-0.46634 1.5751-0.29426 2.1988s0.4475 1.0477 0.72094 1.4083c0.54676 0.72135 1.1515 1.2269 1.4703 1.5387 2.3929 2.34 4.9884 7.8187 5.7102 12.423 0.49102 3.1314 1.3086 6.3208 3.6406 8.8331s5.933 4.0798 11.478 4.601c0.93411 0.0878 1.8934-0.0848 2.6253-0.6206s1.1441-1.3725 1.3564-2.1936c0.42451-1.6421 0.20148-3.3996-0.23274-5.3108-0.86841-3.8224-2.7394-8.202-4.2241-11.233-0.52884-1.0798-1.2033-1.6453-2.1134-2.4062s-1.9946-1.486-3.1511-1.9799-2.6129-0.89956-3.8918 0.0708c-0.0965 0.0732-0.14673 0.20284-0.23233 0.28911-0.0132-0.0525-0.0151-0.0681-0.029-0.1219-0.48794-1.9425-1.126-4.7744-3.1071-7.8074-1.4894-2.2802-4.5771-3.4098-7.2844-1.9569z"/>
    <path d="m-305.21 348c-0.80113-0.72133-2.3721-1.9498-1.7384-2.8219 2.6293-3.6189 6.352-2.7471 7.741-0.7376 1.7309 2.5043 2.291 5.5713 3.2418 8.048 1.1691 3.0456 0.49138-0.39309 3.3951-0.3931 1.5033-0.0319 3.8567 0.77288 7.3361 3.9057 10.412 8.4318 7.165 17.818 1.3417 17.513-11.726-0.61454-13.795-5.5405-14.704-11.748-0.75995-5.1891-3.4871-10.951-6.6133-13.766z" fill="#fff"/>
    <path d="m-283.1 333.57c-4.8098 3.411-9.9531 12.292-11.793 17.954-0.41693 1.9616 1.6539-3.6323 6.519 0.74829 2.2875 2.0597 3.8658 4.0943 4.5615 5.2994-0.61626 0.50293-1.2183 0.97817-1.834 1.4255-2.0708 1.5045-9.4009 8.3952-1.2237 13.706 4.8764 3.1668 8.1248 1.2102 11.956-4.6888 2.9424-4.5309 2.5516-8.0696 3.1306-9.2059 2.2282-4.373 4.5891-13.523 3.8687-16.912-0.57186-2.6904-3.1218-4.8366-4.2998-1.2112-1.1278 3.4712-3.6159 8.2954-5.2604 10.326-0.83012 0.0233-1.4499-0.0823-1.3177-0.52108 1.4393-4.7756 3.8315-10.786 5.5281-13.724 1.9868-3.4412-1.5411-6.3997-4.4486-2.398-3.3978 4.6767-5.3746 9.1762-6.6918 13.23-0.14829 0.45642-0.5558 0.10056-1.0376-0.45332 0.49742-3.9079 1.9153-7.8698 5.5004-11.851 2.5507-2.8328-0.91403-3.3141-3.1576-1.723z" fill="#fff"/>
    <path d="m-283.34 349.57c-0.57655-0.72023-2.1315-2.36-4.2222-2.4165-0.44641-0.0123 0.42773-0.94983 0.86629-0.93796 1.9834 0.0537 4.0024 1.409 4.2318 1.9584 0.20165 0.48309-0.52743 1.8314-0.8759 1.3961z"/>
    <path d="m-276.54 352.71c-0.57656-0.72023-2.1315-2.36-4.2222-2.4165-0.4464-0.0123 0.42774-0.94982 0.86631-0.93796 1.9834 0.0537 4.0024 1.409 4.2318 1.9584 0.20164 0.48309-0.52744 1.8314-0.8759 1.3961z"/>
    <path transform="matrix(1.2563 -.64012 .75263 1.199 -1256.4 271.75)" d="m548.66 377.81c0 3.3038-2.6783 5.9822-5.9821 5.9822s-5.9821-2.6783-5.9821-5.9822 2.6783-5.9821 5.9821-5.9821 5.9821 2.6783 5.9821 5.9821z"/>
    <path transform="matrix(.94399 -.48098 .56552 .90091 -1016.7 297.87)" d="m548.66 377.81c0 3.3038-2.6783 5.9822-5.9821 5.9822s-5.9821-2.6783-5.9821-5.9822 2.6783-5.9821 5.9821-5.9821 5.9821 2.6783 5.9821 5.9821z" fill="#fff"/>
   </g>
   <path d="m81.0564,258.72052c-1.14063.18806-2.11751,1.0322-2.58098,2.21028-.002.005-.0289-.005-.0307,0l-.0316.0614-.0316.0614c-.003.008.002.0253-.00045.0307s.006.0165-.00044.0306-.0268.017-.0312.0306c-.0252.057-.0576.12117-.0948.18419-.11692.19814-.33905.49786-.59641.89025-.50616.77177-1.18752,1.84068-2.07139,3.06985-1.77424,2.46736-4.21805,5.70508-6.9797,9.05604-5.52137,6.69959-12.47201,13.91243-17.34452,16.48507-.98924.52231-1.65647,1.39976-1.99928,2.33308-.33418.90984-.44162,1.89189-.41041,2.88566 .0621,1.9786.64916,4.10976 1.44766,6.04759 .79731,1.93494 1.81356,3.68447 3.09221,4.88105 .63353.59288 1.40151,1.15176 2.40777,1.25864 1.07982.1147 2.16359-.42468 2.84399-1.28933 11.036-14.02457 18.25424-27.07709 25.22853-43.40762 .41171-.96402.62243-1.89804.37881-2.82425-.25886-.98415-1.03697-1.70672-1.93733-1.93401-.41634-.1051-.85262-.12826-1.25819-.0614z"/>
   <path d="m79.896 260.75c0.57041-1.8916 3.5794-1.8005 2.3214 1.25-6.8166 16.529-13.895 29.599-24.821 43.75-3.0196 3.9108-9.8972-11.429-5.5357-13.75 10.975-5.8414 27.58-29.739 28.036-31.25z" fill="#ff0"/>
  </g>
  <path d="m344.67 758.71c5.3248-9.368 11.054-18.583 13.616-28.104 0.26326-0.97835-0.41755-5.0708-0.47591-5.4378-3.7658-9.0088-24.467-1.9937-23.795 6.576 0.14086 1.3346-0.047 1.062 0.47906 1.6518 2.3229 2.6048 4.7318 5.1343 6.1664 9.5434 1.7931 5.5108 2.9786 11.137 4.0096 15.771z"/>
  <path d="m348.3 674.26c1.4605-1.847-4.6518-9.846-5.863-11.24-4.39-5.0519-10.568-5.5913-16.334-2.7446-6.7633 3.3396-9.2062 7.6097-7.4821 11.66 0.96509 2.2673 4.3841 11.395 7.3141 11.729 10.909-1.5312 17.763-4.78 22.365-9.4043z"/>
  <path d="m346.37 673.46c1.3287-1.7003-4.3812-8.8407-5.5109-10.082-4.0944-4.5002-9.7944-4.8783-15.081-2.1946-6.2022 3.1483-8.4133 7.0624-6.7857 10.703 0.91109 2.0377 4.1492 10.249 6.853 10.499 10.04-1.5835 16.327-4.6511 20.525-8.9251z" fill="url(#f)"/>
  <path d="m344.83 757.84c4.9876-9.4106 9.8615-18.821 12.331-28.232-2.8452-8.0594-23.393-6.0195-22.491 2.5296 7.5249 6.507 8.4836 16.283 10.16 25.702z" fill="#f5cec7"/>
  <path d="m323.1 682.8c6.7729-4.7275 14.982-8.3644 24.577-11.121 7.3162 17.724 9.2894 31.517 10.68 57.933-2.0291-0.40573-4.3035 0.29417-5.2492 2.0825-3.6387-6.2192-8.3388-0.85908-8.7817 2.0006-1.4672-2.2589-3.7908-5.039-10.271-1.5534-1.0114-19.217-4.0663-35.879-10.955-49.341z"/>
  <path d="m344.83 757.84c4.9876-9.4106 9.8615-18.821 12.331-28.232-2.8452-8.0594-23.393-6.0195-22.491 2.5296 7.5249 6.507 8.4836 16.283 10.16 25.702z" fill="url(#e)"/>
  <path d="m346.58 671.68c-8.8594 2.7569-16.419 6.3988-22.64 11.126 6.9972 13.675 9.8255 32.169 10.729 49.34 5.9641-3.4856 8.1508-0.70487 9.5371 1.554 0.37676-2.8596 4.6721-8.2265 8.1174-2.0073 0.85535-1.7883 2.9484-2.4886 4.8336-2.0828-0.34544-12.99-1.6425-25.765-4.0858-37.189 0.12295-0.18491 0.24403-0.36728 0.35764-0.56117-0.1711-0.0448-0.33827-0.10569-0.50937-0.17267-1.6122-7.3504-3.7092-14.124-6.34-20.008z" fill="#ff0"/>
  <path d="m346.58 671.68c-8.8594 2.7569-16.419 6.3988-22.64 11.126 6.9972 13.675 9.8255 32.169 10.729 49.34 5.9641-3.4856 8.1508-0.70487 9.5371 1.554 0.37676-2.8596 4.6721-8.2265 8.1174-2.0073 0.85535-1.7883 2.9484-2.4886 4.8336-2.0828-0.34544-12.99-1.6425-25.765-4.0858-37.189 0.12295-0.18491 0.24403-0.36728 0.35764-0.56117-0.1711-0.0448-0.33827-0.10569-0.50937-0.17267-1.6122-7.3504-3.7092-14.124-6.34-20.008z" fill="url(#d)"/>
  <path d="m346.65 673.65c-7.2229 2.2477-13.509 5.1328-18.847 8.7737 5.2257-2.6599 11.087-4.8174 17.589-6.5182 2.267 4.8836 4.1255 9.6863 5.6681 14.483l1.333 0.6691c-1.3734-5.9487-3.2566-11.769-5.7439-17.407zm6.2858 19.889-0.20591 0.3993-0.69361-0.35613c0.9557 3.2585 1.7811 6.5203 2.4926 9.8098-0.39958-3.3135-0.92206-6.603-1.5931-9.8529z" fill="url(#h)"/>
  <g transform="matrix(.3468 0 0 .34534 331.18 590.29)">
   <path d="m11.481 322.17 2.2812 15.031c1.4056 6.1706 3.2022 12.023 5.7812 16.375 3.9764 0.14975 9.7679 4e-3 14.812-0.6875 1.3533-7.287 2.125-15.533 2.125-24.281 0-1.2499-0.0318-2.4903-0.0625-3.7188-0.21046 0.026-0.41206 0.0712-0.625 0.0937-10.251 1.0848-23.045-1.4053-24.312-2.8125z"/>
   <path d="m11.481 322.17 2.2812 15.031c1.4056 6.1706 3.2022 12.023 5.7812 16.375 3.5961 0.14493 8.666 0.0599 13.344-0.46875 1.2665-7.3451 2-15.656 2-24.5 0-1.2006-0.0365-2.3816-0.0625-3.5625-10.071 0.83913-22.116-1.5117-23.344-2.875z" fill="#800000"/>
   <path d="m20.356 336.17c-2.4597-0.0179-4.7356 0.0306-6.75 0.4375 1.9389 8.689 4.6291 16.845 9.1562 21.156 2.4179 2.3026 5.3476 3.8108 8.6562 4.5625 2.7601 0.1207 5.3574 0.2236 7.5938 0 1.7073-0.1707 3.275-0.52549 4.5-1.5s1.9062-2.5814 1.9062-4.4688c0-3.7747-2.1853-8.5478-5.5-12.625s-7.8656-7.4688-12.969-7.4688l-6.5938-0.0937z"/>
   <path d="m20.356 337.51c-2.4093-0.0176-4.6037 0.0829-6.4375 0.4375 1.9122 8.1732 4.5528 15.726 8.8438 19.812 1.3323 1.2688 2.8166 2.2715 4.4375 3.0625 8.874 0.0354 16.875 1.8813 16.875-4.4688 0-6.4104-8.1504-18.75-17.125-18.75h-1.0312c3.7284 1.751 5.0773 6.4951 4.6562 11.125-1.0798-4.6801-4.0056-9.4836-8.375-11.188-0.60699-0.0109-1.2556-0.0271-1.8438-0.0312z" fill="#f00"/>
   <path d="m52.325 306.29c-14.664 9.3636-35.087 9.0124-44.969 1.1875 1.589 3.8251 2.6785 10.121 3.9062 17 0.52715 0.23145 1.1674 0.45704 1.9375 0.6875 1.6228 0.48567 3.7668 0.9283 6.1875 1.3125 4.8415 0.76839 10.842 1.2257 16.219 0.59375 4.9968-0.58729 9.3371-2.2365 12.438-3.875 1.5502-0.81924 2.7946-1.6133 3.6562-2.3438 0.43081-0.36523 0.75491-0.73421 1-1.0625s0.46589-0.63871 0.40625-1.125c-0.26303-2.1446-0.89394-8.4289-0.78125-12.375z"/>
   <path d="m51.481 306.79c-14.595 8.8311-34.429 8.3654-44.125 0.6875 0.38651 0.93043 0.72467 2.0604 1.0625 3.25 0.29982 0.84678 0.49645 1.6908 0.65625 2.5312 2e-3 0.01-2e-3 0.0216 0 0.0312 0.5296 2.2488 1.0391 4.8374 1.5312 7.5312 0.23548 0.48789 0.53704 0.9337 0.90625 1.3438 1.2671 1.4072 14.03 3.9285 24.281 2.8438 9.5104-1.0064 16.598-5.5124 16.438-6.6875-0.27254-2.0008-0.97476-8.0763-0.75-11.531z" fill="#fff"/>
   <path d="m53.79331,343.73054c-.3954-.00068-.63746.14479-.875.25-.31672.14026-.65012.32549-1,.53125-.69975.41153-1.57371.95017-2.75,1.59375-2.35258,1.28715-5.8337,2.93804-10.90625,4.25-5.67844,1.46868-14.8683,1.70358-19.71875,1.4375 1.19697,2.38269 2.59397,4.42144 4.21875,5.96875 7.68406,7.3177 20.52977,6.52088 34.28125-.71875-.82233-3.00722-1.20861-5.28306-1.375-6.96875-.21168-2.14449-.0945-3.37742-.15625-4.59375-.0133-.2611-.0582-.56648-.25-.90625s-.5956-.68231-1.03125-.78125c-.16977-.0386-.3057-.0623-.4375-.0625zm3.875,15.5c-.24302,1.63873-.4331,3.19088-.59375,4.71875 .70413-1.14759.98746-2.56556.78125-4.0625a1.37232,1.41635 0 0,0 -.0625-.25l-.125-.40625z"/>
   <path d="m54.106 345.7c-1.2906 0.33863-5.5134 3.935-15.25 6.375-5.6492 1.4157-14.082 1.702-19.312 1.5 0.95734 1.6153 2.0216 3.0474 3.2188 4.1875 7.5114 7.1533 19.943 6.542 33.344-0.25-1.8844-6.7406-1.4677-9.6607-1.5625-11.469-0.0169-0.32255-0.13967-0.4219-0.4375-0.34375z" fill="#fff"/>
  </g>
  <path d="m357.16 729.61c-1.8852-0.40574-3.989 0.2945-4.8444 2.0828-3.4453-6.2193-7.7297-0.86317-8.1065 1.9965-1.3812-2.2506-3.6424-4.9674-9.5572-1.5401 0.0971 0.43757 0.2795 0.837 0.37777 1.2704 5.8824-3.561 8.093-0.72138 9.5046 1.5864 0.33356-2.9215 4.5248-8.4043 8.0415-2.0504 0.82507-1.827 2.9091-2.5405 4.7902-2.126z"/>
  <path d="m346.13234,745.76521c-1.23197,0-2.42263.14928-3.54388.43168 .072.28028.13809.5594.20591.84176 1.04604-.33996 2.16717-.5288 3.33797-.5288 1.46384,0 2.85234.28957 4.10745.80939l.40099-.83097c-1.39515-.46232-2.91438-.72306-4.50844-.72306z"/>
  <path d="m346.13 746.51c-1.1682 0-2.2943 0.18985-3.338 0.5288 0.845 3.518 1.3935 7.1845 2.0375 10.803 1.8589-3.5074 3.6992-7.0147 5.408-10.522-1.2565-0.5214-2.6422-0.80939-4.1074-0.80939z" fill="#666"/>
  <path d="m348.06 687.82c1.7917 1.8168 3.5838 3.5665 5.3754 4.0361-4.2426 7.2404-15.18 8.1935-19.714 4.6189 1.5474 3.7094 1.7675 13.963 5.3429 17.353 2.7335 2.5922 7.3608 2.2506 12.268-0.43167-0.60971 3.5821-0.66285 6.2746-0.3468 9.1407 0.1154-2.8151 1.0268-5.2736 1.669-8.9032 0.0926-0.52258-0.14491-1.0853-0.59607-1.3921s-1.087-0.34244-1.5714-0.0863c-2.4016 1.2629-4.6858 1.9347-6.5784 2.0181s-3.3483-0.3714-4.4434-1.3706c-1.3297-1.2132-2.4342-4.4297-3.1429-7.8133-0.42528-2.0305-0.74816-4.0409-1.138-5.8384 2.4872 0.80489 5.3968 0.97588 8.3233 0.46405 4.3168-0.75499 8.6714-2.9922 11.141-7.047 0.22778-0.37564 0.26034-0.85054 0.0867-1.2518s-0.54784-0.71988-0.98622-0.83097c-1.4379-0.36263-3.3561-0.40838-5.5705-2.5577-0.0386-0.0379-0.0763-0.0746-0.11921-0.10792z"/>
  <g transform="matrix(.3468 0 0 .34534 331.18 590.29)">
   <path d="m46.718 255.58c-5.7233 0-10.422 4.1141-12.995 9.75-2.1883-2.0683-4.9326-3.4375-8.0692-3.4375-8.5559 0-15.637 8.4782-16.803 18.531-0.58338 5.027 0.42133 9.6941 2.72 13.219s6.0312 5.9062 10.306 5.9062c6.4096 0 11.783-4.903 14.657-11.5 2.3791 2.4972 5.4557 4.1562 8.9456 4.1562 8.3363 0 14.762-8.4228 15.141-18.219 0.1894-4.8962-1.1413-9.4084-3.5964-12.781s-6.1374-5.625-10.306-5.625z"/>
   <path d="m46.244 258.12c-5.8999 0-11.034 5.1838-12.625 12.125-1.9407-3.5484-5.1947-5.8125-9.1562-5.8125-7.1248 0-13.795 7.3165-14.875 16.312s3.8439 16.281 10.969 16.281c6.5338 0 12.632-6.1384 14.438-14.094 2.095 4.0917 5.7191 6.75 9.9688 6.75 6.9039 0 12.808-7.0642 13.156-15.781s-4.9711-15.781-11.875-15.781z" fill="#fff"/>
   <path d="m49.967 277.24c0.92182 2.8371-0.63081 5.8843-3.4679 6.8061s-5.8843-0.63079-6.8061-3.4679 0.63081-5.8843 3.4679-6.8062 5.8843 0.6308 6.8061 3.4679z"/>
   <path d="m46.092 277.31c0.39899 1.228-0.27304 2.5469-1.501 2.9459s-2.547-0.27305-2.9459-1.501 0.27303-2.547 1.501-2.946 2.5469 0.27303 2.9459 1.501z" fill="#fff"/>
   <path d="m26.594 283.31c0.78425 2.4136-0.53665 5.006-2.9503 5.7903s-5.0061-0.53667-5.7903-2.9503 0.53665-5.0061 2.9503-5.7903 5.0061 0.53665 5.7903 2.9503z"/>
   <path d="m23.297 283.37c0.33945 1.0447-0.23229 2.1668-1.277 2.5062s-2.1668-0.23229-2.5062-1.277 0.23228-2.1668 1.277-2.5062 2.1668 0.23228 2.5062 1.277z" fill="#fff"/>
  </g>
  <g transform="matrix(.3468 0 0 .34534 331.18 590.29)">
   <g transform="matrix(-.40674 .91355 .91355 .40674 -517.31 421.4)">
    <path transform="matrix(.8792 -.47717 .45195 .88699 -936.29 305.58)" d="m569.28 337.41c-2.3903 0-5.3228 1.1608-8.4375 2.6562s-6.2041 3.3492-8.2812 5.0312c-1.3198 1.0688-2.5878 2.5495-3.4375 4.25s-1.3362 3.7458-0.53125 5.6875c0.59608 1.4379 1.7809 2.4637 3.0938 3.3125 0.61687 0.39886 1.2621 0.74733 1.9375 1-1.658 0.42108-3.723 1.1286-5.625 2.75-1.2604 1.0745-2.3501 2.5739-2.6875 4.4688s0.0845 4.0628 1.4375 6.4062c1.6107 2.7898 3.8671 4.469 6.5 4.625s5.3449-0.95964 8.5-2.7812c2.533-1.4624 4.17-3.1342 5.2812-4.5s1.9609-2.4828 1.8125-2.375c2.1664-1.574 4.7587-4.1205 7-6.75s4.1331-5.1664 4.75-7.4688c0.45918-1.7137 0.44798-3.4766-0.625-4.9062-0.51928-0.69192-1.5278-1.1855-2.5312-1.125 9e-3 -6e-3 0.0226-0.0256 0.0312-0.0312 2.179-1.415 3.0677-3.9267 2-5.8438-0.53386-0.95851-1.5569-1.6618-2.7188-1.8438-0.71218-0.11151-1.4691 3e-3 -2.25 0.21875-9e-3 -0.0528 0.0443-0.10516 0.0312-0.15625-0.13966-0.54764-0.47367-0.93008-0.78125-1.2188-1.2303-1.1547-2.7813-1.4062-4.4688-1.4062z"/>
    <path d="m-305.18 342.58c-0.90373 0.48506-1.742 1.2404-2.4415 2.2684-0.4294 0.63112-0.46634 1.5751-0.29426 2.1988s0.4475 1.0477 0.72094 1.4083c0.54676 0.72135 1.1515 1.2269 1.4703 1.5387 2.3929 2.34 4.9884 7.8187 5.7102 12.423 0.49102 3.1314 1.3086 6.3208 3.6406 8.8331s5.933 4.0798 11.478 4.601c0.93411 0.0878 1.8934-0.0848 2.6253-0.6206s1.1441-1.3725 1.3564-2.1936c0.42451-1.6421 0.20148-3.3996-0.23274-5.3108-0.86841-3.8224-2.7394-8.202-4.2241-11.233-0.52884-1.0798-1.2033-1.6453-2.1134-2.4062s-1.9946-1.486-3.1511-1.9799-2.6129-0.89956-3.8918 0.0708c-0.0965 0.0732-0.14673 0.20284-0.23233 0.28911-0.0132-0.0525-0.0151-0.0681-0.029-0.1219-0.48794-1.9425-1.126-4.7744-3.1071-7.8074-1.4894-2.2802-4.5771-3.4098-7.2844-1.9569z"/>
    <path d="m-305.21 348c-0.80113-0.72133-2.3721-1.9498-1.7384-2.8219 2.6293-3.6189 6.352-2.7471 7.741-0.7376 1.7309 2.5043 2.291 5.5713 3.2418 8.048 1.1691 3.0456 0.49138-0.39309 3.3951-0.3931 1.5033-0.0319 3.8567 0.77288 7.3361 3.9057 10.412 8.4318 7.165 17.818 1.3417 17.513-11.726-0.61454-13.795-5.5405-14.704-11.748-0.75995-5.1891-3.4871-10.951-6.6133-13.766z" fill="#fff"/>
    <path d="m-283.1 333.57c-4.8098 3.411-9.9531 12.292-11.793 17.954-0.41693 1.9616 1.6539-3.6323 6.519 0.74829 2.2875 2.0597 3.8658 4.0943 4.5615 5.2994-0.61626 0.50293-1.2183 0.97817-1.834 1.4255-2.0708 1.5045-9.4009 8.3952-1.2237 13.706 4.8764 3.1668 8.1248 1.2102 11.956-4.6888 2.9424-4.5309 2.5516-8.0696 3.1306-9.2059 2.2282-4.373 4.5891-13.523 3.8687-16.912-0.57186-2.6904-3.1218-4.8366-4.2998-1.2112-1.1278 3.4712-3.6159 8.2954-5.2604 10.326-0.83012 0.0233-1.4499-0.0823-1.3177-0.52108 1.4393-4.7756 3.8315-10.786 5.5281-13.724 1.9868-3.4412-1.5411-6.3997-4.4486-2.398-3.3978 4.6767-5.3746 9.1762-6.6918 13.23-0.14829 0.45642-0.5558 0.10056-1.0376-0.45332 0.49742-3.9079 1.9153-7.8698 5.5004-11.851 2.5507-2.8328-0.91403-3.3141-3.1576-1.723z" fill="#fff"/>
    <path d="m-283.34 349.57c-0.57655-0.72023-2.1315-2.36-4.2222-2.4165-0.44641-0.0123 0.42773-0.94983 0.86629-0.93796 1.9834 0.0537 4.0024 1.409 4.2318 1.9584 0.20165 0.48309-0.52743 1.8314-0.8759 1.3961z"/>
    <path d="m-276.54 352.71c-0.57656-0.72023-2.1315-2.36-4.2222-2.4165-0.4464-0.0123 0.42774-0.94982 0.86631-0.93796 1.9834 0.0537 4.0024 1.409 4.2318 1.9584 0.20164 0.48309-0.52744 1.8314-0.8759 1.3961z"/>
    <path transform="matrix(1.2563 -.64012 .75263 1.199 -1256.4 271.75)" d="m548.66 377.81c0 3.3038-2.6783 5.9822-5.9821 5.9822s-5.9821-2.6783-5.9821-5.9822 2.6783-5.9821 5.9821-5.9821 5.9821 2.6783 5.9821 5.9821z"/>
    <path transform="matrix(.94399 -.48098 .56552 .90091 -1016.7 297.87)" d="m548.66 377.81c0 3.3038-2.6783 5.9822-5.9821 5.9822s-5.9821-2.6783-5.9821-5.9822 2.6783-5.9821 5.9821-5.9821 5.9821 2.6783 5.9821 5.9821z" fill="#fff"/>
   </g>
   <path d="m-57.06724,306.25141c.99785-.71482 2.36512-.81397 3.59741-.27698 .005.002.018-.0254.0231-.0231l.0698.0224 .0698.0224c.008.003.0177.0204.0233.0227 .0115.005.008.0166.0233.0227 .0136.007.0329-.007.0464-.00036 .0617.0239.13422.0478.20944.0672 .23653.0611.62832.11947 1.11611.22104 .95941.19976 2.27341.49123 3.85979.75107 3.18442.52157 7.44991,1.11922 12.03912,1.56338 9.17522.888 22.83144,1.0888 28.61392-.63589 1.17399-.35015 2.31606-.19189 3.22463.25183 .88571.43255 1.63032,1.08951 2.26703,1.85933 1.26769,1.53273 2.19905,3.57399 2.82496,5.62875 .62499,2.0517.94358,4.12847.67441,5.98685-.13337.92079-.40162,1.91694-1.1702,2.75244-.82476.89658-2.08902,1.30486-3.23356,1.16609-18.56418-2.25079-35.28249-6.63682-52.77724-13.66799-1.03276-.41506-1.89203-.95844-2.4042-1.83694-.5442-.93345-.50209-2.06015.004-2.90661 .23383-.39141.54413-.73625.89893-.99042z"/>
   <path d="m-54.669 306.91c-1.8482-0.99267-4.0398 1.3342-0.80543 2.6812 16.767 6.9828 34.997 10.946 53.673 13.904 0.54029 0.0856 0.73027 2.282 1.4881 3.6973 0.50073 0.98274 4.0036 5.0609 3.3006 2.1332-0.69031-2.875 1.0234-8.4145-0.62751-13.549-2.6606-8.2738-8.8162-15.999-8.5641-13.6 0.19733 1.8775 0.40862 3.5007 0.61217 4.9599 0.12435 0.89147 0.55361 2.0575 0.0767 2.2029-12.627 3.8494-47.677-1.6366-49.154-2.4298z" fill="#ff0"/>
  </g>
  <g transform="matrix(.3468 0 0 .34534 331.18 590.29)">
   <path d="m-7.9494 231.89c-8.5225 5.7024-16.089 12.07-20.857 18.436-1.799 2.4018-1.2905 5.5361-0.32057 7.9965 0.48494 1.2302 1.0942 2.3378 2.1999 3.1123 0.55281 0.38729 1.3146 0.67513 2.1174 0.63234s1.5508-0.44079 2.1193-0.97119c9.3381-8.7115 22.391-17.29 34.338-23.942s22.985-11.416 27.601-12.434c0.80062-0.17664 1.588-0.64391 2.0542-1.3014s0.61917-1.4133 0.64713-2.0985c0.0559-1.3703-0.38322-2.64-1.0246-3.8782s-1.4996-2.4108-2.5862-3.3077-2.5244-1.6131-4.1302-1.3328c-11.202 1.9558-27.956 9.586-42.158 19.088z"/>
   <path d="m40.116 222.83c-7.8081 1.5127-19.923 6.9638-32.221 13.969s-24.598 15.547-32.252 23.5c-1.1605 1.2059-1.507 2.7454-1.5269 4.1875s0.28266 2.8697 0.81019 4.1562 1.238 2.4767 2.4306 3.3125c0.59631 0.41789 1.3744 0.71598 2.2436 0.71875s1.7362-0.33637 2.3994-0.875c16.854-13.687 47.918-29.914 65.034-33.562 1.0137-0.21609 1.9671-1.0225 2.3682-1.9062s0.42502-1.7264 0.34278-2.5312c-0.16448-1.6098-0.80191-3.2022-1.6516-4.7812s-1.9016-3.101-3.1473-4.2812-2.8013-2.2993-4.83-1.9062z"/>
   <path d="m34.762 214.51c-0.11363 2e-3 -0.23139 0.0119-0.34375 0.0312-17.357 2.9931-50.329 20.59-62.656 36.844-2.2451 2.9603 0.76331 10.959 3.5 8.4375 19.267-17.752 53.223-34.584 63.594-36.844 3.4531-0.75245-0.57116-8.5466-4.0938-8.4688zm6 10.375c-0.11896-6.7e-4 -0.22922 9e-3 -0.34375 0.0312-14.701 2.8145-49.167 21.452-64.125 36.812-2.617 2.6874 0.6531 10.797 3.5938 8.4375 17.394-13.959 48.66-30.171 66.688-33.969 3.5357-0.7448-2.1248-11.292-5.8125-11.312z" fill="url(#c)"/>
  </g>
  <path d="m324.75034,731.77464a.19454,.1873 0 0,0 -.0281.0135c-.60146.16319-1.25061.3616-1.82471.67568v.0135c-.3121.0888-.55816.24609-.77199.41892-.22801.1843-.43536.37403-.67373.4865a.19454,.1873 0 0,0 -.0842.0676c-.30342.45535-.79886.81097-1.17904,1.31083-.004.005-.0101.008-.014.0135-.42768.48617-.64695,1.08348-1.08078,1.41894a.19454,.1873 0 0,0 -.0421.0405c-.30308.44719-.8393.79584-1.17904,1.31083a.19454,.1873 0 0,0 -.014.0135c.012-.0259-.0168.0206-.0561.0676s-.0916.1188-.1544.18919c-.12562.14078-.27472.30994-.42108.4865s-.28182.35193-.36494.51352c-.0416.0808-.0847.15744-.0842.25676 .00027.0581.0373.12015.0842.17567l1.57205,7.93254a.19454,.1873 0 0,0 .1965.14865l9.53056-.32433a.19454,.1873 0 0,0 .18247-.13513c.0354-.10105.0513-.17948.0421-.27028s-.061-.19565-.14036-.24325c-.15871-.0952-.29718-.0506-.42108-.0405s-.24332.0167-.3088,0-.0853-.0187-.11229-.12162a.19454,.1873 0 0,0 -.0842-.12163c-.079-.0416-.29-.22413-.51934-.4054s-.48261-.36457-.78603-.44595c.0191-.0112.0327-.0149.0562-.027 .10812-.0561.25869-.12148.39301-.18919 .11335-.0571.20955-.13205.29476-.22973l.014.0135 .28072-.16216c.13147-.0675.27802-.14559.40705-.22974s.25402-.15671.29476-.33784c.0203-.0906-.017-.20336-.0842-.27027s-.1381-.10187-.23862-.13514a.19454,.1873 0 0,0 -.0842-.0134c-.31725.0193-.55627-.11129-.81409-.31081s-.5065-.46835-.8141-.66217c-.37217-.37949-.71583-.67802-.94042-1.09461a.19454,.1873 0 0,0 0-.027c-.37441-.53824-.7986-1.03113-.8141-1.60813a.19454,.1873 0 0,0 -.11229-.16216c-.21957-.1039-.30557-.31269-.37898-.5946-.0671-.25765-.1205-.55757-.23861-.83785 .00043-.0201-.0139-.0341-.014-.0541-.004-.008.004-.0188 0-.027-.006-.32177-.0668-.61587-.11229-.8919-.0496-.30128-.0679-.57685.0421-.85137a.19454,.1873 0 0,0 0-.027c.17206-.65372.17422-1.29534.40704-1.85138a.19454,.1873 0 0,0 .014-.054c.0133-.25465.14824-.54701.32284-.82434 .16542-.26277.35182-.51021.46319-.75677 .17246-.10281.34154-.22879.46319-.40541 .13708-.199.226-.44383.14037-.6892a.19454,.1873 0 0,0 -.21053-.13513z" fill="#fff"/>
  <path d="m328.01896,746.8162c.23803-.70166-.76145.0459-.92103-.58332-.25625-.13948-.74369-.72248-1.24417-.85568-.6488-.26022.51128-.47545.68264-.75039 .24257-.19044 1.35098-.59311.69587-.81739-.74172.0467-1.15889-.65839-1.69983-1.01094-.37064-.39374-.73128-.71948-.97542-1.18787-.3568-.53051-.80739-1.06784-.82461-1.73063-.56677-.27739-.45346-1.07896-.70012-1.59809 .015-.65137-.32405-1.26638-.075-1.90944 .15941-.6264.14582-1.28617.39096-1.8917 .0314-.62571.63455-1.24657.81329-1.69201 .31499-.16848.66729-.60992.55534-.94166-.58049.1629-1.19379.37359-1.72959.67677-.57932.14263-.90129.66653-1.43018.92462-.32424.50327-.82704.86789-1.17444,1.3465-.3867.45051-.59191,1.08386-1.0749,1.47013-.3244.49504-.84985.83199-1.1494,1.30164-.0782.17402-1.33282,1.41655-.97056,1.54259l1.55118,8.02589z" fill="#fff"/>
  <g transform="matrix(.3468 0 0 .34534 331.18 590.29)">
   <path d="m-1.4259 407.21c-0.45763 3.842 0.11896 10.266 7.4797 9.8083 7.5034-0.46646 12.621-9.7381 15.267-16.904 2.0564-5.5694-0.0651-13.554-10.144-10.33-5.3418 1.7088-11.859 11.183-12.603 17.425z"/>
   <path d="m9.9069 483.05c-1.6608 5.8981-6.6717 11.132-14.902 11.132s-14.902-4.9838-14.902-11.132c0-2.5189-1.2177-11.886 1.0709-23.299 3.1549-15.733 15.678-20.873 20.536-20.873 4.3729 0 6.082-0.98715 9.3928 12.724 2.9201 12.093-0.41324 28.666-1.1969 31.449z"/>
   <path d="m8.5464 481.24c-1.4072 5.2519-5.6533 9.9121-12.627 9.9121s-12.627-4.4378-12.627-9.9121c0-2.2429-1.0318-10.584 0.90744-20.746 2.6733-14.009 13.285-18.587 17.402-18.587 3.7054 0 5.1536-0.87899 7.959 11.33 2.4743 10.768-0.35015 25.525-1.0142 28.003z" fill="url(#b)"/>
   <path d="m0.07473 407.36c-0.39878 3.2876 0.10366 8.7844 6.5178 8.3929 6.5385-0.39915 10.998-8.3328 13.304-14.464 1.792-4.7657-0.0567-11.598-8.8393-8.8393-4.6549 1.4622-10.334 9.5692-10.982 14.911z" fill="#cb7d15"/>
   <path d="m13.107 441.91c0 5.086-4.9815 8.8409-11.127 8.3868s-11.127-4.9452-11.127-10.031 4.9815-8.8409 11.127-8.3868 11.127 4.9452 11.127 10.031z"/>
   <path d="m11.64 441.72c0 3.9052-4.0421 6.7884-9.0282 6.4397s-9.0282-3.7972-9.0282-7.7024 4.0421-6.7884 9.0282-6.4397 9.0282 3.7972 9.0282 7.7024z" fill="#fff"/>
   <path d="m1.1738 469.99c-1.0693-2.0986-6.2007-3.5143-8.4951-0.61882-0.90021 1.1361 0.3517-0.47086 4.0822-0.34036s5.0438 2.1974 4.4128 0.95918z"/>
   <path d="m1.758 462.73c-0.72703-1.4269-4.216-2.3894-5.7759-0.42074-0.61206 0.77242 0.23913-0.32014 2.7756-0.23142s3.4293 1.4941 3.0004 0.65216z"/>
   <path d="m12.32 390.46c-1.0118 0.0737-2.0622 0.27418-3.1871 0.625-0.71188 0.22203-1.3388 0.52293-1.8078 1.0312s-0.70695 1.1906-0.71565 1.7812c-4e-3 0.25097 0.57282 1.5347 0.91562 1.6529 1.2706 0.43828 3.8797-0.91796 3.4665-0.10691 0.22791 4.3488-2.0426 6.6833-3.6563 10.392-3.982 9.1501-9.4733 21.258-9.2942 31.875 0.0172 1.0246 0.12333 2.1469 0.32422 3.1875s0.42984 2.0106 1.1989 2.8438c0.38453 0.41659 0.99159 0.77938 1.6817 0.84375s1.3413-0.16284 1.8836-0.5c1.0847-0.67432 2.0178-1.8099 3.1918-3.6875 7.6198-12.187 13.026-27.573 15.8-39.688 0.53067-2.3181-0.0668-4.929-1.7382-7s-4.5048-3.5091-8.0629-3.25z"/>
   <path d="m0.07473 437.72c-0.0109 3.8801 0.92081 9.1495 5.3571 1.9643 7.4096-12.001 12.86-27.297 15.714-39.286 1.0229-4.2967-2.5992-10.606-10.536-8.0357-1.458 0.47218-4.4994 3.0028-4.2573 4.1293 0.1956 0.91031 3.5211 0.29026 3.864 1.7138 0.50338 2.0899 0.7016 4.7743-0.76738 8.1748-3.9642 9.1766-9.3467 21.201-9.375 31.339z" fill="#cb7d15"/>
  </g>
 </g>
</svg>
