<?xml version="1.0" encoding="utf-8"?>
<!-- Generator: Moho 12.5 build 22438 -->
<!DOCTYPE svg PUBLIC "-//W3C//DTD SVG 1.1//EN" "http://www.w3.org/Graphics/SVG/1.1/DTD/svg11.dtd">
<svg version="1.1" id="Frame_0" xmlns="http://www.w3.org/2000/svg" xmlns:xlink="http://www.w3.org/1999/xlink" width="1920px" height="1080px">
<g id="Layer_4">
<path fill="#ff9800" fill-rule="evenodd" stroke="#ffffff" stroke-width="3" stroke-opacity="0.000000" stroke-linecap="round" stroke-linejoin="round" d="M 1934.641 -23.250 C 1934.446 -23.250 -15.950 -23.250 -16.145 -23.250 C -16.145 -23.138 -16.145 1097.854 -16.145 1097.966 C -15.950 1097.966 1934.446 1097.966 1934.641 1097.966 C 1934.641 1097.854 1934.641 -23.138 1934.641 -23.250 Z"/>
</g>
<g id="Layer_2">
<g id="Layer_4">
<g id="Layer_4">
<g id="Layer_2">
<path fill="#1a1a1a" fill-rule="evenodd" stroke="#ffffff" stroke-width="4" stroke-opacity="0.000000" stroke-linecap="round" stroke-linejoin="round" d="M 650.681 253.899 C 547.730 252.689 457.475 335.893 458.115 445.914 C 458.745 554.367 548.098 634.833 649.580 633.529 C 749.887 632.239 834.314 550.913 834.444 443.714 C 834.573 336.825 750.699 255.074 650.681 253.899 Z"/>
<path fill="#ffffff" fill-rule="evenodd" stroke="#ffffff" stroke-width="4" stroke-opacity="0.000000" stroke-linecap="round" stroke-linejoin="round" d="M 661.138 307.802 C 651.163 307.802 643.228 315.760 643.228 325.491 C 643.228 335.221 651.163 343.179 661.138 343.179 C 671.113 343.179 679.048 335.221 679.048 325.491 C 679.048 315.760 671.113 307.802 661.138 307.802 Z"/>
<path fill="#ffffff" fill-rule="evenodd" stroke="#ffffff" stroke-width="4" stroke-opacity="0.000000" stroke-linecap="round" stroke-linejoin="round" d="M 589.941 316.647 C 615.703 316.647 636.595 337.515 636.595 363.521 C 636.595 389.528 615.703 410.396 589.941 410.396 C 564.180 410.396 543.287 389.528 543.287 363.521 C 543.287 337.515 564.180 316.646 589.941 316.647 Z"/>
<path fill="#7a5038" fill-rule="evenodd" stroke="#ffffff" stroke-width="4" stroke-opacity="0.000000" stroke-linecap="round" stroke-linejoin="round" d="M 548.051 480.794 C 560.014 483.682 575.792 488.377 587.928 490.420 C 601.923 492.775 620.835 494.576 635.024 494.888 C 649.271 495.202 668.313 494.165 682.463 492.482 C 695.800 490.895 713.424 487.443 726.465 484.231 C 735.462 482.016 746.927 477.026 756.029 475.294 C 762.945 473.979 772.509 471.813 779.404 473.231 C 784.871 474.356 792.750 477.222 795.905 481.826 C 799.130 486.532 799.043 495.129 797.968 500.732 C 795.616 512.996 784.767 526.991 776.655 536.484 C 764.841 550.308 745.799 566.461 729.559 574.641 C 711.978 583.497 685.553 588.871 665.963 590.798 C 645.200 592.841 616.902 591.482 596.522 587.017 C 586.417 584.804 573.293 579.932 564.208 574.985 C 548.773 566.581 530.096 551.791 517.800 539.234 C 511.623 532.926 504.048 523.664 499.925 515.858 C 497.274 510.840 493.960 503.653 493.737 497.983 C 493.566 493.634 494.574 487.378 497.174 483.888 C 500.017 480.072 506.357 477.316 510.925 475.982 C 516.966 474.216 525.672 474.345 531.895 475.294 C 536.956 476.066 543.204 479.144 548.051 480.794 C 548.051 480.794 548.051 480.794 548.051 480.794 Z"/>
<path fill="#f9f8f6" fill-rule="evenodd" stroke="#ffffff" stroke-width="4" stroke-opacity="0.000000" stroke-linecap="round" stroke-linejoin="round" d="M 748.117 489.658 C 760.460 489.658 770.734 499.861 770.734 512.934 C 770.734 526.006 760.460 536.210 748.117 536.210 C 735.774 536.210 725.500 526.006 725.500 512.934 C 725.500 499.861 735.774 489.658 748.117 489.658 Z"/>
</g>
<g id="Layer_3">
<path fill="#c0d4dd" fill-rule="evenodd" fill-opacity="0.807843" stroke="#ffffff" stroke-width="4" stroke-opacity="0.000000" stroke-linecap="round" stroke-linejoin="round" d="M 659.006 589.638 C 674.878 588.643 695.847 585.057 711.499 582.240 C 718.946 580.900 728.605 577.358 736.161 576.955 C 744.121 576.531 755.412 576.292 762.584 579.774 C 767.492 582.156 773.602 587.387 775.619 592.456 C 778.834 600.538 776.516 613.324 773.153 621.345 C 769.474 630.121 760.412 640.221 752.366 645.302 C 743.024 651.202 727.780 653.731 716.784 654.814 C 696.938 656.769 670.303 651.916 650.550 649.178 C 634.884 647.006 614.324 642.130 598.761 639.313 C 579.031 635.742 552.274 633.136 532.881 628.039 C 522.601 625.338 507.716 623.048 499.412 616.414 C 496.868 614.381 493.810 610.776 493.070 607.605 C 492.438 604.898 492.952 600.768 494.479 598.446 C 500.430 589.398 516.860 586.370 527.244 583.297 C 533.808 581.354 542.947 579.922 549.791 579.774 C 561.508 579.520 576.946 583.028 588.545 584.705 C 594.815 585.612 603.114 587.227 609.396 588.044 C 612.932 588.504 617.674 588.900 621.221 589.267 C 621.221 589.267 621.221 589.267 621.221 589.267 C 621.353 589.272 647.692 590.347 659.006 589.638 Z"/>
<path fill="#c0d4dd" fill-rule="evenodd" fill-opacity="0.807843" stroke="#ffffff" stroke-width="4" stroke-opacity="0.000000" stroke-linecap="round" stroke-linejoin="round" d="M 529.021 650.560 C 547.409 650.078 562.950 664.045 563.407 682.246 C 563.892 701.522 547.767 717.938 528.301 717.172 C 509.999 716.453 496.901 700.364 497.515 682.246 C 498.105 664.858 511.449 651.021 529.021 650.560 Z"/>
<path fill="#e5f1f5" fill-rule="evenodd" fill-opacity="0.807843" stroke="#ffffff" stroke-width="4" stroke-opacity="0.000000" stroke-linecap="round" stroke-linejoin="round" d="M 532.442 661.723 C 540.624 661.723 547.565 668.585 547.565 677.565 C 547.565 686.545 540.624 693.408 532.442 693.408 C 524.259 693.408 517.319 686.545 517.319 677.565 C 517.319 668.585 524.259 661.723 532.442 661.723 Z"/>
<path fill="#e5f1f5" fill-rule="evenodd" fill-opacity="0.807843" stroke="#ffffff" stroke-width="4" stroke-opacity="0.000000" stroke-linecap="round" stroke-linejoin="round" d="M 638.962 603.559 C 648.975 603.926 662.416 603.631 672.334 602.202 C 681.967 600.814 694.139 595.456 703.806 594.334 C 712.054 593.377 723.561 592.114 731.481 594.605 C 736.090 596.055 742.647 599.093 745.047 603.287 C 746.789 606.333 747.233 611.725 745.861 614.954 C 743.007 621.668 732.828 626.352 726.055 629.063 C 714.037 633.871 696.130 633.978 683.187 633.946 C 674.917 633.926 663.975 632.095 655.784 630.962 C 642.860 629.173 625.738 626.046 612.915 623.636 C 600.177 621.242 583.071 618.454 570.590 614.954 C 564.865 613.348 555.624 613.053 551.869 608.442 C 550.548 606.820 549.436 603.591 550.241 601.659 C 552.121 597.151 560.348 595.961 565.164 595.148 C 569.590 594.400 575.623 595.759 580.086 596.233 C 584.745 596.728 590.912 597.753 595.551 598.404 C 595.551 598.404 595.551 598.404 595.551 598.404 C 595.551 598.322 625.856 603.078 638.962 603.559 Z"/>
</g>
</g>
<g id="Layer_2">
<g id="Layer_2">
<path fill="#1a1a1a" fill-rule="evenodd" stroke="#ffffff" stroke-width="4" stroke-opacity="0.000000" stroke-linecap="round" stroke-linejoin="round" d="M 1311.015 249.570 C 1411.501 248.361 1499.596 331.565 1498.971 441.586 C 1498.356 550.038 1411.141 630.504 1312.089 629.200 C 1214.183 627.911 1131.777 546.584 1131.651 439.385 C 1131.524 332.496 1213.391 250.745 1311.015 249.570 Z"/>
<path fill="#ffffff" fill-rule="evenodd" stroke="#ffffff" stroke-width="4" stroke-opacity="0.000000" stroke-linecap="round" stroke-linejoin="round" d="M 1300.808 303.473 C 1310.544 303.473 1318.289 311.432 1318.289 321.162 C 1318.289 330.892 1310.544 338.850 1300.808 338.851 C 1291.071 338.851 1283.326 330.892 1283.326 321.162 C 1283.326 311.431 1291.071 303.473 1300.808 303.473 Z"/>
<path fill="#ffffff" fill-rule="evenodd" stroke="#ffffff" stroke-width="4" stroke-opacity="0.000000" stroke-linecap="round" stroke-linejoin="round" d="M 1370.300 312.318 C 1345.155 312.318 1324.763 333.186 1324.763 359.193 C 1324.763 385.199 1345.155 406.068 1370.300 406.068 C 1395.445 406.068 1415.837 385.199 1415.837 359.193 C 1415.837 333.186 1395.445 312.318 1370.300 312.318 Z"/>
<path fill="#7a5038" fill-rule="evenodd" stroke="#ffffff" stroke-width="4" stroke-opacity="0.000000" stroke-linecap="round" stroke-linejoin="round" d="M 1411.188 476.466 C 1399.511 479.353 1384.111 484.049 1372.265 486.091 C 1358.605 488.447 1340.146 490.248 1326.297 490.560 C 1312.391 490.873 1293.804 489.837 1279.993 488.153 C 1266.975 486.567 1249.773 483.114 1237.044 479.903 C 1228.263 477.687 1217.073 472.697 1208.188 470.966 C 1201.438 469.650 1192.103 467.485 1185.373 468.903 C 1180.036 470.027 1172.347 472.893 1169.267 477.497 C 1166.119 482.203 1166.204 490.800 1167.253 496.404 C 1169.549 508.667 1180.139 522.663 1188.056 532.156 C 1199.587 545.980 1218.173 562.133 1234.025 570.313 C 1251.185 579.168 1276.977 584.542 1296.099 586.470 C 1316.364 588.513 1343.985 587.154 1363.877 582.689 C 1373.740 580.475 1386.550 575.603 1395.417 570.657 C 1410.483 562.252 1428.713 547.462 1440.715 534.905 C 1446.744 528.598 1454.137 519.335 1458.162 511.529 C 1460.750 506.512 1463.984 499.324 1464.202 493.654 C 1464.368 489.305 1463.385 483.050 1460.847 479.560 C 1458.072 475.744 1451.884 472.988 1447.425 471.653 C 1441.528 469.888 1433.031 470.016 1426.957 470.966 C 1422.017 471.738 1415.918 474.816 1411.188 476.466 C 1411.188 476.466 1411.188 476.466 1411.188 476.466 Z"/>
<path fill="#f9f8f6" fill-rule="evenodd" stroke="#ffffff" stroke-width="4" stroke-opacity="0.000000" stroke-linecap="round" stroke-linejoin="round" d="M 1215.911 485.329 C 1203.864 485.329 1193.835 495.533 1193.835 508.605 C 1193.835 521.677 1203.864 531.881 1215.911 531.881 C 1227.958 531.881 1237.987 521.677 1237.987 508.605 C 1237.987 495.533 1227.958 485.329 1215.911 485.329 Z"/>
</g>
<g id="Layer_3">
<path fill="#c0d4dd" fill-rule="evenodd" fill-opacity="0.807843" stroke="#ffffff" stroke-width="4" stroke-opacity="0.000000" stroke-linecap="round" stroke-linejoin="round" d="M 1302.889 585.309 C 1287.396 584.315 1266.929 580.728 1251.652 577.911 C 1244.384 576.571 1234.956 573.029 1227.581 572.627 C 1219.811 572.202 1208.791 571.964 1201.791 575.445 C 1197.000 577.828 1191.036 583.058 1189.067 588.128 C 1185.929 596.210 1188.192 608.995 1191.474 617.017 C 1195.065 625.792 1203.910 635.893 1211.763 640.973 C 1220.882 646.873 1235.761 649.402 1246.494 650.486 C 1265.865 652.441 1291.862 647.588 1311.142 644.849 C 1326.433 642.677 1346.501 637.802 1361.691 634.985 C 1380.950 631.413 1407.066 628.807 1425.995 623.711 C 1436.029 621.009 1450.557 618.720 1458.663 612.085 C 1461.146 610.052 1464.131 606.448 1464.853 603.277 C 1465.469 600.569 1464.968 596.440 1463.477 594.117 C 1457.668 585.070 1441.632 582.041 1431.497 578.968 C 1425.089 577.025 1416.170 575.593 1409.489 575.445 C 1398.052 575.191 1382.985 578.699 1371.663 580.377 C 1365.544 581.284 1357.443 582.898 1351.312 583.715 C 1347.859 584.175 1343.232 584.571 1339.769 584.938 C 1339.769 584.938 1339.769 584.938 1339.769 584.938 C 1339.640 584.944 1313.932 586.018 1302.889 585.309 Z"/>
<path fill="#c0d4dd" fill-rule="evenodd" fill-opacity="0.807843" stroke="#ffffff" stroke-width="4" stroke-opacity="0.000000" stroke-linecap="round" stroke-linejoin="round" d="M 1429.762 646.232 C 1411.814 645.750 1396.646 659.717 1396.199 677.917 C 1395.726 697.193 1411.465 713.609 1430.465 712.844 C 1448.328 712.124 1461.113 696.035 1460.514 677.917 C 1459.938 660.529 1446.914 646.693 1429.762 646.232 Z"/>
<path fill="#e5f1f5" fill-rule="evenodd" fill-opacity="0.807843" stroke="#ffffff" stroke-width="4" stroke-opacity="0.000000" stroke-linecap="round" stroke-linejoin="round" d="M 1426.423 657.394 C 1418.437 657.394 1411.663 664.257 1411.663 673.237 C 1411.663 682.217 1418.437 689.079 1426.423 689.079 C 1434.410 689.079 1441.184 682.217 1441.184 673.237 C 1441.184 664.257 1434.410 657.394 1426.423 657.394 Z"/>
<path fill="#e5f1f5" fill-rule="evenodd" fill-opacity="0.807843" stroke="#ffffff" stroke-width="4" stroke-opacity="0.000000" stroke-linecap="round" stroke-linejoin="round" d="M 1322.453 599.230 C 1312.680 599.597 1299.560 599.303 1289.880 597.874 C 1280.478 596.486 1268.597 591.128 1259.161 590.005 C 1251.111 589.048 1239.879 587.786 1232.149 590.277 C 1227.650 591.727 1221.249 594.765 1218.908 598.959 C 1217.207 602.004 1216.774 607.396 1218.113 610.625 C 1220.898 617.340 1230.834 622.024 1237.445 624.734 C 1249.175 629.542 1266.653 629.649 1279.287 629.618 C 1287.359 629.598 1298.039 627.767 1306.034 626.633 C 1318.648 624.845 1335.361 621.718 1347.876 619.308 C 1360.310 616.913 1377.007 614.126 1389.188 610.625 C 1394.776 609.020 1403.796 608.725 1407.461 604.114 C 1408.751 602.491 1409.836 599.263 1409.050 597.331 C 1407.216 592.823 1399.185 591.633 1394.484 590.819 C 1390.165 590.072 1384.276 591.430 1379.919 591.905 C 1375.372 592.400 1369.353 593.424 1364.825 594.075 C 1364.825 594.075 1364.825 594.075 1364.825 594.075 C 1364.825 593.994 1335.245 598.750 1322.453 599.230 Z"/>
</g>
</g>
</g>
<g id="Layer_3">
<path fill="#431f11" fill-rule="evenodd" stroke="#ffffff" stroke-width="3" stroke-opacity="0.000000" stroke-linecap="round" stroke-linejoin="round" d="M 763.960 895.707 C 765.811 881.832 765.181 862.551 770.128 849.457 C 780.722 821.417 806.793 788.964 828.712 768.518 C 842.408 755.743 864.159 742.531 881.128 734.603 C 895.839 727.729 916.775 721.188 932.774 718.414 C 957.164 714.186 990.748 712.607 1015.254 716.102 C 1041.244 719.809 1075.984 729.586 1098.504 743.081 C 1121.371 756.783 1148.982 781.761 1162.482 804.747 C 1172.939 822.552 1178.086 850.597 1180.983 871.040 C 1183.513 888.901 1187.888 914.201 1181.754 931.165 C 1177.505 942.917 1166.632 957.775 1155.545 963.540 C 1140.350 971.441 1115.430 968.465 1098.504 965.853 C 1079.270 962.885 1056.654 947.493 1037.607 943.498 C 1011.771 938.079 975.961 935.877 949.732 938.873 C 923.917 941.822 892.230 959.281 866.482 962.770 C 848.608 965.192 823.236 969.130 806.357 962.770 C 794.222 958.196 780.340 945.853 773.211 935.019 C 769.192 928.910 766.984 919.055 765.503 911.894 C 764.516 907.117 764.423 900.563 763.960 895.707 C 763.960 895.707 763.960 895.707 763.960 895.707 Z"/>
<path fill="#feffff" fill-rule="evenodd" stroke="#ffffff" stroke-width="3" stroke-opacity="0.000000" stroke-linecap="round" stroke-linejoin="round" d="M 1092.359 855.500 C 1092.359 855.500 1092.359 855.500 1092.359 855.500 C 1097.688 855.339 1104.791 854.859 1110.121 854.962 C 1116.920 855.093 1126.026 855.432 1132.728 856.577 C 1140.491 857.902 1152.565 869.247 1158.027 863.575 C 1160.502 861.005 1157.877 855.177 1156.951 851.732 C 1154.364 842.108 1147.588 830.297 1141.879 822.129 C 1131.346 807.058 1113.939 789.191 1099.357 777.991 C 1083.423 765.753 1059.808 751.864 1040.687 745.696 C 1019.642 738.908 989.570 736.010 967.484 737.084 C 948.059 738.028 922.116 743.322 904.081 750.600 C 884.935 758.327 861.062 773.268 845.744 787.112 C 829.120 802.136 809.058 825.698 800.107 846.241 C 797.915 851.272 793.221 859.451 796.140 864.099 C 797.362 866.046 800.991 866.688 803.283 866.877 C 810.307 867.458 818.977 861.840 825.902 860.528 C 836.743 858.473 851.536 858.139 862.522 857.116 C 862.522 857.116 862.522 857.116 862.522 857.116 C 854.448 861.637 843.321 867.072 835.609 872.187 C 823.441 880.258 805.492 890.180 797.394 902.330 C 793.995 907.428 789.600 915.726 790.934 921.706 C 793.222 931.969 806.913 941.730 816.771 945.390 C 829.048 949.947 847.413 945.134 860.370 943.237 C 880.986 940.219 907.192 929.948 927.652 926.013 C 945.885 922.505 970.452 917.488 989.013 917.939 C 1006.397 918.361 1029.042 924.631 1046.069 928.165 C 1070.612 933.260 1102.527 951.055 1127.346 947.543 C 1137.857 946.056 1153.250 940.790 1159.103 931.933 C 1164.190 924.235 1164.242 909.983 1161.257 901.252 C 1157.708 890.871 1145.419 880.723 1136.496 874.339 C 1124.787 865.962 1092.363 855.502 1092.359 855.500 C 1092.359 855.500 1092.359 855.500 1092.359 855.500 Z"/>
<path fill="#431f11" fill-rule="evenodd" stroke="none" d="M 1050.283 847.797 C 1050.283 847.797 1050.283 847.797 1050.283 847.797 C 1046.168 847.282 1040.707 846.312 1036.566 846.082 C 1028.859 845.654 1018.552 846.245 1010.845 846.653 C 1002.682 847.086 991.839 848.254 983.694 848.940 C 983.694 848.940 983.694 848.940 983.694 848.940 C 981.036 849.026 974.835 849.226 974.834 849.226 C 979.807 845.882 985.765 840.089 991.410 838.080 C 998.460 835.571 1008.795 835.851 1016.275 836.079 C 1021.983 836.254 1029.754 836.742 1035.136 838.651 C 1040.139 840.426 1050.282 847.796 1050.283 847.797 C 1050.283 847.797 1050.283 847.797 1050.283 847.797 Z"/>
<path fill="none" stroke="#ffffff" stroke-width="3" stroke-opacity="0.000000" stroke-linecap="round" stroke-linejoin="round" d="M 974.834 849.226 C 974.834 849.226 974.834 849.226 974.834 849.226 C 974.835 849.226 981.036 849.026 983.694 848.940 C 991.839 848.254 1002.682 847.086 1010.845 846.653 C 1018.552 846.245 1028.859 845.654 1036.566 846.082 C 1040.707 846.312 1046.168 847.282 1050.283 847.797 C 1050.283 847.797 1050.283 847.797 1050.283 847.797 C 1050.282 847.796 1040.139 840.426 1035.136 838.651 C 1029.754 836.742 1021.983 836.254 1016.275 836.079 C 1008.795 835.851 998.460 835.571 991.410 838.080 C 985.765 840.089 979.807 845.882 974.834 849.226 M 983.694 848.940 C 983.694 848.940 983.694 848.940 983.694 848.940 M 1050.283 847.797 C 1050.283 847.797 1050.283 847.797 1050.283 847.797 "/>
</g>
</g>
</svg>
