<?xml version="1.0" encoding="utf-8"?>
<svg xmlns="http://www.w3.org/2000/svg" xmlns:xlink="http://www.w3.org/1999/xlink" version= "1.1" width="1920px" height="1300px" viewBox="-600 63 1920 1300">
<g id="layer1">
<g style="fill:rgb(0,174,199); fill-opacity:1.0; stroke-linejoin: miter">
<path d="M-600.001,61.429474C-600.41724,61.429474,-600.8164,61.594833,-601.1108,61.889175C-601.40515,62.183517,-601.5705,62.582737,-601.5705,62.999L-601.5695,1363.0C-601.5695,1363.8668,-600.8668,1364.5696,-600.0,1364.5696L1320.001,1364.5706C1320.4172,1364.5706,1320.8165,1364.4052,1321.1108,1364.1108C1321.4052,1363.8165,1321.5706,1363.4172,1321.5706,1363.001L1321.5696,63.0C1321.5696,62.133175,1320.8668,61.430473,1320.0,61.430473L-600.001,61.429474 Z"/>
</g>
<g style="fill:rgb(0,0,0); fill-opacity:0.57254905; stroke-linejoin: miter">
<path d="M1044.9961,1253.3562L1038.9143,1256.0043Q992.53723,1264.1644,785.87286,1268.8049Q594.78436,1273.3007,309.15262,1272.7869Q48.370697,1271.7576,-115.25255,1266.4473Q-148.50163,1265.4352,-182.45064,1263.8063Q-204.03119,1263.0818,-255.61182,1259.3054Q-290.30542,1256.2664,-287.45102,1253.1249Q-278.16977,1244.9841,-91.92565,1239.6075Q101.243576,1233.9557,378.7494,1233.8417Q478.58713,1233.8041,611.6163,1235.0741Q731.1768,1236.6338,747.1818,1237.0354Q805.45807,1238.2607,849.85706,1239.5575Q1035.4287,1244.8934,1044.9961,1253.3562"/>
</g>
<g style="fill:rgb(0,0,0); fill-opacity:0.99607843; stroke-linejoin: miter">
<path d="M338.20926,634.3951L332.016,633.4037Q304.12067,629.0689,289.7355,621.15955Q272.21442,612.6371,257.4044,591.95447Q252.57037,585.02075,248.53094,576.9658L244.77158,568.6965Q241.25153,560.17957,239.01431,550.93604Q234.78781,527.3886,236.00264,522.2279Q236.29988,512.3874,238.69359,502.47766Q243.75772,482.46262,256.5239,464.1329Q258.8248,458.9505,278.54562,439.1575Q286.8576,431.65707,296.09402,425.65536Q333.70096,401.1928,379.29437,409.10602Q434.00034,417.29938,508.87225,467.67465L338.20926,634.3951"/>
</g>
<g style="fill:rgb(240,196,169); fill-opacity:1.0; stroke-linejoin: miter">
<path d="M310.8999,599.4314L309.8147,602.4506Q300.39392,626.8417,316.2658,632.4139Q323.20148,635.5197,333.46268,637.58374Q376.75983,645.2824,375.71762,645.7488L410.647,656.1885Q417.40475,657.72675,423.57355,657.3179L453.57935,652.88104L491.80658,651.09033Q502.1745,650.11523,511.37656,646.542Q523.3338,642.9028,537.15753,623.3774Q545.91284,609.58673,553.38184,593.6307L630.03503,472.8686L573.2506,477.6358L463.18317,451.74854Q432.4596,421.57413,418.84546,428.53857Q411.0384,432.40817,407.68747,440.86285Q404.93277,450.41278,407.16904,453.8833Q411.699,464.32477,433.3681,474.1245Q381.04428,481.49152,365.25766,486.7671Q342.9557,493.2796,333.1056,504.2948Q326.09448,510.70172,321.56943,527.2912Q319.1142,534.66125,316.4796,576.07117Q315.4015,585.34576,310.8999,599.4314"/>
</g>
<g style="fill:rgb(255,0,35); fill-opacity:0.15294118; stroke-linejoin: miter">
<path d="M537.3252,599.70734L526.07697,533.7691L579.503,521.6552L537.3252,599.70734"/>
</g>
<g style="fill:rgb(0,0,0); fill-opacity:0.99607843; stroke-linejoin: miter">
<path d="M592.82135,548.28766L592.82135,548.28827Q569.082,565.8973,545.34247,583.50494Q554.19543,525.7224,563.04834,467.93994Q592.19934,479.17212,621.3503,490.40436L592.82135,548.28766"/>
</g>
<g style="fill:rgb(240,196,169); fill-opacity:1.0; stroke-linejoin: miter">
<path d="M122.33382,1240.616L-67.528984,1258.0155L-132.41101,1241.1036Q-44.95529,1196.2876,-5.7672844,1177.96Q33.749935,1159.2559,46.059124,1158.4286Q51.142548,1158.2544,52.302727,1159.8181Q54.04312,1161.0226,53.939514,1166.4104L122.33382,1240.616"/>
</g>
<g style="fill:rgb(255,255,255); fill-opacity:1.0; stroke-linejoin: miter">
<path d="M231.09494,794.23444L231.09494,794.23505L71.79846,904.37506Q109.857765,935.4131,147.91707,966.45105L231.09494,794.23444"/>
</g>
<g style="fill:rgb(255,255,255); fill-opacity:1.0; stroke-linejoin: miter">
<path d="M828.92175,1174.8575L836.14685,1166.9413Q894.9013,1106.911,898.04047,984.44324Q900.8835,879.6446,893.07086,825.01575Q881.5997,740.38214,876.15936,725.32947Q868.5452,693.3516,858.0092,665.1689Q825.3907,582.34467,768.9951,542.10156Q731.8284,514.51965,689.3635,496.45325Q679.0785,491.34198,625.0037,470.54315L580.5242,460.78967L572.7693,516.58765L466.77515,718.0876L828.92175,1174.8575"/>
</g>
<g style="fill:rgb(0,0,0); fill-opacity:0.99607843; stroke-linejoin: miter">
<path d="M17.757343,1157.3325L17.757372,1157.3326L17.7574,1157.3329L17.757343,1157.3325"/>
</g>
<g style="fill:rgb(0,0,0); fill-opacity:0.99607843; stroke-linejoin: miter">
<path d="M20.566269,1157.8387L20.566298,1157.839L20.566326,1157.8392L20.566269,1157.8387"/>
</g>
<g style="fill:rgb(0,0,0); fill-opacity:0.99607843; stroke-linejoin: miter">
<path d="M23.766129,1162.6239L40.85595,1166.0844Q64.44399,1223.6243,92.728,1239.4762Q104.25698,1247.197,116.443016,1253.8903Q125.66116,1255.9836,144.72198,1237.1285Q216.35187,1159.7828,296.4567,1025.5709Q335.84546,957.3351,363.90588,851.40106Q452.32687,1078.656,487.56335,1144.628Q529.79553,1228.51,572.7194,1249.7809Q643.13293,1285.4695,722.7398,1252.3801Q795.2534,1219.3416,870.53986,1122.2374Q885.5717,1101.8425,882.4582,1087.0348L729.12366,970.5764Q582.08185,782.71387,501.02136,708.837Q424.85333,643.1564,390.50992,641.9289Q357.86893,633.8023,318.69867,654.81573Q278.82858,678.8608,239.76189,736.23804Q160.82239,850.50433,23.766129,1162.6239"/>
</g>
<g style="fill:rgb(255,255,255); fill-opacity:1.0; stroke-linejoin: miter">
<path d="M861.97314,970.53284L866.2168,977.32385Q895.82196,1020.9319,894.2455,1056.9521Q894.8395,1068.6631,883.6177,1099.3191Q874.9779,1121.3811,851.3921,1163.2148L714.1767,984.5786L675.0076,877.063L861.97314,970.53284"/>
</g>
<g style="fill:rgb(255,255,255); fill-opacity:1.0; stroke-linejoin: miter">
<path d="M677.51074,786.4699L429.5522,982.75684L102.609726,987.2855L147.67638,892.86743L374.9548,857.06195Q438.9821,757.93695,467.117,711.8846Q495.94388,665.206,545.84,578.8693L677.51074,786.4699"/>
</g>
<g style="fill:rgb(240,196,169); fill-opacity:1.0; stroke-linejoin: miter">
<path d="M151.32997,952.7169L95.50712,966.77747L79.36266,1042.1951L26.745667,1003.4889Q20.915133,974.8556,19.979189,959.7501Q18.427769,941.47156,22.923746,925.3093Q27.647512,908.9719,39.94657,897.6356Q44.057625,893.9484,49.04444,891.0913L54.254456,888.4762Q59.68556,886.08575,66.017975,884.7313Q90.22869,877.99396,163.86032,895.1293L151.32997,952.7169"/>
</g>
<g style="fill:rgb(240,196,169); fill-opacity:1.0; stroke-linejoin: miter">
<path d="M166.07446,982.9791L194.10289,1003.82166L126.28119,1071.1057Q118.02551,1066.1608,110.315285,1060.7721Q89.36502,1045.7478,85.68176,1028.3395Q83.24851,1021.57385,83.47999,1000.9813Q84.425964,982.72253,87.21285,962.9667L136.82854,953.0918L166.07446,982.9791"/>
</g>
<g style="fill:rgb(0,0,0); fill-opacity:0.99607843; stroke-linejoin: miter">
<path d="M391.9994,413.5144L391.99948,413.51486L391.9996,413.51532L391.9994,413.5144"/>
</g>
<g style="fill:rgb(0,0,0); fill-opacity:0.99607843; stroke-linejoin: miter">
<path d="M390.28568,555.05383L390.2857,555.05396Q389.39444,545.7678,389.26816,540.96655Q389.20908,539.03766,389.23618,537.1925L389.2902,535.37335Q389.36853,533.5778,389.5654,531.89716L389.7955,530.24884L390.08484,528.6579L390.42813,527.11926Q390.79834,525.60675,391.25473,524.1778Q392.3743,520.5847,395.05338,514.76086L390.28568,555.05383"/>
</g>
<g style="fill:rgb(0,0,0); fill-opacity:0.99607843; stroke-linejoin: miter">
<path d="M403.80585,549.45197L403.80597,549.452Q406.37308,543.9502,407.3915,540.89056Q407.80844,539.6668,408.13004,538.4423L408.42184,537.21765L408.65402,535.99255L408.8207,534.76697L408.91794,533.54083L408.94955,532.3142L408.92166,531.0873Q408.86392,529.8601,408.71088,528.6321Q408.3521,525.5624,406.97238,520.03156L403.80585,549.45197"/>
</g>
<g style="fill:rgb(0,0,0); fill-opacity:0.99607843; stroke-linejoin: miter">
<path d="M490.9322,554.286L490.93237,554.28613L490.9326,554.2862L490.9322,554.286"/>
</g>
<g style="fill:rgb(0,0,0); fill-opacity:0.99607843; stroke-linejoin: miter">
<path d="M386.40524,591.6198L386.4053,591.6197Q383.5231,600.4922,382.35947,605.152Q381.8838,607.02216,381.51044,608.8294L381.16898,610.61707Q380.85638,612.38684,380.68436,614.0702L380.55185,615.7293L380.48956,617.3452L380.49127,618.9216Q380.525,620.47845,380.66092,621.9724Q380.97528,625.7226,382.32874,631.98865L386.40524,591.6198"/>
</g>
<g style="fill:rgb(0,0,0); fill-opacity:0.99607843; stroke-linejoin: miter">
<path d="M398.39038,600.0183L398.3905,600.01825Q399.70444,605.9457,400.0357,609.1532Q400.17758,610.43823,400.2262,611.7033L400.2457,612.9621L400.20694,614.20844L400.1041,615.4411L399.9333,616.6591L399.69836,617.8635L399.4053,619.0553Q399.083,620.24084,398.6675,621.40643Q397.65213,624.3255,395.10657,629.42584L398.39038,600.0183"/>
</g>
<g style="fill:rgb(255,0,0); fill-opacity:0.18039216; stroke-linejoin: miter">
<path d="M452.41013,604.6823L462.18103,600.0729L471.95197,595.4635Q464.5174,587.13947,457.0828,578.8155Q458.29855,585.3261,459.51434,591.83673Q455.96222,598.2595,452.41013,604.6823"/>
</g>
<g style="fill:rgb(255,0,0); fill-opacity:0.21176471; stroke-linejoin: miter">
<path d="M509.8231,586.3986L509.82883,587.83813Q509.85754,593.11096,509.54376,596.67456Q509.18362,600.1068,508.9858,601.1571Q508.59857,603.4218,507.87338,606.29Q506.06873,613.12134,500.1214,627.1088L509.8231,586.3986"/>
</g>
<g style="fill:rgb(255,0,0); fill-opacity:0.99607843; stroke-linejoin: miter">
<path d="M545.486,618.66724L545.48627,618.6675L545.4865,618.6677L545.486,618.66724"/>
</g>
<g style="fill:rgb(0,0,0); fill-opacity:0.99607843; stroke-linejoin: miter">
<path d="M309.10275,435.21567L311.321,442.03122Q316.20016,463.36115,305.62784,481.56955Q294.9451,499.811,273.01883,505.97827Q251.68887,510.85736,233.48048,500.28497Q227.62877,496.85382,222.77728,491.9848L218.25754,486.79126Q214.02866,481.2558,211.29,474.49164Q203.46947,453.49884,211.72812,434.15778Q219.98666,414.81662,240.55823,405.9473Q261.551,398.1269,280.8922,406.38553Q300.23337,414.64413,309.10275,435.21567"/>
</g>
</g>
</svg>